# xmcd
#
# Track frame offsets:
#	150
#	25595
#	43612
#	65797
#
# Disc length: 1124 seconds
#
# Revision: 1
# Processed by: cddbd v1.5.1PL2 Copyright (c) Steve Scherf et al.
# Submitted via: audiograbber 1.80
#
DISCID=2e046204
DTITLE=Jenny Morris - Rythm and Flow
DYEAR=1900
DGENRE=
TTITLE0=Rythm and Flow
TTITLE1=Shadow Man
TTITLE2=Rythm and Flow (acapella)
TTITLE3=Wishes
EXTD=
EXTT0=
EXTT1=
EXTT2=
EXTT3=
PLAYORDER=
